<svg width="40" height="26" viewBox="0 0 40 26" fill="none" xmlns="http://www.w3.org/2000/svg">
<g clip-path="url(#clip0_9320_83200)">
<path fill-rule="evenodd" clip-rule="evenodd" d="M16.3763 9.13064C16.2378 10.1644 15.6832 10.7868 15.0945 11.4795C14.725 11.9143 14.3261 12.1458 13.9819 12.7616C13.4536 13.707 13.1715 14.2151 13.039 15.4342C12.889 16.8142 13.1581 18.1941 14.0759 19.1955C14.4928 19.6502 15.0188 19.9254 15.6748 19.9745C16.3897 20.0281 17.2838 19.9808 18.0182 19.9808C18.468 19.9808 20.0472 20.0019 20.3729 19.9675C21.3884 19.8596 22.0034 19.2238 22.4356 18.4456C23.2327 17.0103 23.0611 14.9976 22.4097 13.5067C22.2379 13.1135 21.9813 12.696 21.723 12.3806C21.6664 12.3113 21.6496 12.2704 21.5867 12.2105C20.7613 11.4254 19.7708 10.3639 19.5931 9.125L16.3765 9.13124L16.3763 9.13064Z" fill="#FBE0CB"/>
<path fill-rule="evenodd" clip-rule="evenodd" d="M25.4668 13.7763C25.5275 13.6755 25.669 13.5543 25.7525 13.5148C25.9701 13.7318 26.2983 14.469 26.2565 14.9161L26.183 15.4719L25.8108 15.3735C25.8869 14.5848 25.9121 14.5173 25.4668 13.7765V13.7763ZM21.2541 11.2928C21.3453 11.4075 21.4481 11.4905 21.5502 11.6006C21.6601 11.7188 21.7271 11.8047 21.8336 11.9019C21.933 11.9927 22.0309 12.1308 22.1116 12.2359C23.165 13.6104 23.6135 15.7071 23.2093 17.4591C23.106 17.9064 22.9708 18.1516 22.9198 18.3543C24.171 18.3259 25.3505 18.5783 26.1211 17.8049C26.2247 17.701 26.4339 17.4389 26.5114 17.2513C26.8736 16.3734 27.0826 16.0324 26.9679 14.8759C26.8868 14.0606 26.4781 12.8821 25.929 12.3259C25.224 11.6119 24.5456 10.9683 24.3395 9.90234L21.8874 9.9114C21.7984 10.4179 21.679 10.6222 21.4438 11.0049C21.3831 11.104 21.3044 11.2014 21.2539 11.2928H21.2541Z" fill="#FBE0CB"/>
<path fill-rule="evenodd" clip-rule="evenodd" d="M15.4492 6.0512C15.4551 6.13474 15.6754 6.51139 15.7325 6.64446C15.9391 7.12578 16.0517 7.47687 16.1822 7.9898C16.2376 8.20762 16.2814 8.52548 16.3496 8.72156L17.2008 8.72055L16.9398 7.28683L17.314 7.21315L17.605 8.71592L18.3581 8.72156C18.4397 8.45744 18.58 7.33092 18.6692 7.21637L19.0272 7.28522L18.7643 8.71974C19.8966 8.72256 19.5534 8.90072 19.785 7.99805C19.8989 7.55316 20.0499 7.06217 20.2342 6.64909C20.2948 6.5132 20.5114 6.14078 20.5215 6.04596C19.6936 5.86136 18.3523 6.41698 17.9921 6.42463C17.7714 6.42926 16.002 5.82352 15.4492 6.0512Z" fill="#FBE0CB"/>
<path fill-rule="evenodd" clip-rule="evenodd" d="M21.8619 9.49675L22.4441 9.50118L22.2546 8.42901L22.6295 8.34869L22.8526 9.50158L23.3723 9.50098L23.5983 8.34989L23.9748 8.42397L23.78 9.49675L24.3698 9.50098C24.4729 9.12996 24.5313 8.77888 24.6478 8.41733C24.7879 7.98311 25.0261 7.57264 25.0581 7.46555C24.2923 7.38844 23.4175 7.77153 23.1251 7.77959C22.9054 7.78563 21.8299 7.36711 21.1758 7.46917C21.1958 7.52996 21.4464 8.01612 21.5843 8.41331C21.706 8.76459 21.7582 9.12574 21.862 9.49675H21.8619Z" fill="#FBE0CB"/>
<path fill-rule="evenodd" clip-rule="evenodd" d="M17.179 16.3316V15.2483H18.0943L18.7904 16.3316H19.3806V15.2483H19.8602V14.6706H19.3806V14.454H19.8602V13.8762H19.3806V12.793H18.7904V13.8762H17.8777L17.1837 12.793H16.5888V13.8762H16.1094V14.454H16.5888V14.6706H16.1094V15.2483H16.5888V16.3316H17.179ZM18.7904 14.454V14.6706H18.3867L18.2478 14.454H18.7904ZM17.179 13.8762H17.2125L17.179 13.8241V13.8762ZM17.5838 14.454H17.179V14.6706H17.7231L17.5838 14.454ZM18.7904 15.2485V15.3007L18.757 15.2485H18.7904Z" fill="#5B2E4F"/>
</g>
<rect x="0.5" y="0.5" width="39" height="25" rx="12.5" stroke="#FBE0CB"/>
<defs>
<clipPath id="clip0_9320_83200">
<rect width="14" height="14" fill="white" transform="translate(13 6)"/>
</clipPath>
</defs>
</svg>
